<svg xmlns="http://www.w3.org/2000/svg" viewBox="0 0 806 214" width="806" height="214">
	<style>
		tspan { white-space:pre }
	</style>
	<path id="pictureself " fill="#191919" d="M55.39 149.89C55.39 156.03 53.86 157.31 47.71 157.31L38.75 157.31C32.86 157.31 30.3 155.01 30.3 148.35L30.3 78.72C30.3 72.06 32.86 69.76 38.75 69.76L47.71 69.76C53.86 69.76 55.39 71.04 55.39 77.18ZM46.18 51.07C38.24 51.07 32.61 54.14 30.3 61.06L30.3 51.07L7.26 51.07L7.26 211.33L30.3 211.33L30.3 166.02C32.61 172.93 38.24 176 46.18 176L55.14 176C71.01 176 78.43 168.06 78.43 153.47L78.43 73.86C78.43 59.01 71.01 51.07 55.14 51.07ZM122.46 176L122.46 51.07L99.42 51.07L99.42 176ZM98.91 27.26L122.98 27.26L122.98 4.48L98.91 4.48ZM215.65 90.5L215.65 73.86C215.65 59.01 208.22 51.07 191.58 51.07L167.26 51.07C150.88 51.07 143.46 59.01 143.46 73.86L143.46 153.47C143.46 168.06 150.88 176 167.26 176L191.58 176C208.22 176 215.65 168.06 215.65 153.47L215.65 136.58L192.86 136.58L192.86 149.89C192.86 156.03 191.33 157.31 185.18 157.31L174.18 157.31C168.03 157.31 166.5 156.03 166.5 149.89L166.5 77.18C166.5 71.04 168.03 69.76 174.18 69.76L185.18 69.76C191.33 69.76 192.86 71.04 192.86 77.18L192.86 90.5ZM277.09 69.76L277.09 51.07L259.94 51.07L259.94 29.82L236.64 29.82L236.64 51.07L224.86 51.07L224.86 69.76L236.64 69.76L236.64 153.47C236.64 168.06 244.06 176 260.7 176L277.09 176L277.09 156.29L267.36 156.29C261.22 156.29 259.94 155.01 259.94 148.86L259.94 69.76ZM338.78 51.07L338.78 148.35C338.78 155.01 336.22 157.31 330.34 157.31L321.38 157.31C315.23 157.31 313.7 156.03 313.7 149.89L313.7 51.07L290.66 51.07L290.66 153.47C290.66 168.06 297.82 176 313.7 176L322.91 176C330.85 176 336.48 172.93 338.78 166.02L338.78 176L361.82 176L361.82 51.07ZM427.62 50.82C416.61 50.82 409.95 58.24 407.39 66.43L407.39 51.07L384.35 51.07L384.35 176L407.39 176L407.39 89.73C407.39 76.93 412.51 70.78 423.52 70.78L432.74 70.78L432.74 50.82ZM467.3 103.81L467.3 76.67C467.3 70.78 468.83 69.25 474.98 69.25L487.52 69.25C493.66 69.25 494.94 70.78 494.94 76.67L494.94 103.81ZM468.58 51.07C452.19 51.07 444.77 59.01 444.77 73.86L444.77 153.47C444.77 168.06 452.19 176 468.58 176L493.15 176C509.54 176 516.96 168.06 516.96 153.47L516.96 139.9L494.43 139.9L494.43 150.14C494.43 156.29 492.9 157.82 486.75 157.82L474.98 157.82C468.83 157.82 467.3 156.29 467.3 150.4L467.3 120.7L517.73 120.7L517.73 73.86C517.73 59.01 510.3 51.07 493.66 51.07ZM579.17 150.91C579.17 157.06 577.63 158.34 571.49 158.34L565.34 158.34C559.2 158.34 557.66 157.06 557.66 150.91L557.66 141.18L535.14 141.18L535.14 153.47C535.14 168.06 542.56 176 558.94 176L577.89 176C594.27 176 601.7 168.06 601.7 153.47L601.7 127.87C601.7 113.02 594.53 105.09 578.14 105.09L564.83 105.09C558.69 105.09 557.15 103.81 557.15 97.66L557.15 76.16C557.15 70.02 558.69 68.74 564.83 68.74L570.98 68.74C577.12 68.74 578.66 70.02 578.66 76.16L578.66 85.89L601.18 85.89L601.18 73.86C601.18 59.01 593.76 51.07 577.12 51.07L558.43 51.07C542.05 51.07 534.62 59.01 534.62 73.86L534.62 100.22C534.62 114.82 541.79 122.75 558.43 122.75L571.49 122.75C577.63 122.75 579.17 124.03 579.17 130.18ZM643.42 103.81L643.42 76.67C643.42 70.78 644.96 69.25 651.1 69.25L663.65 69.25C669.79 69.25 671.07 70.78 671.07 76.67L671.07 103.81ZM644.7 51.07C628.32 51.07 620.9 59.01 620.9 73.86L620.9 153.47C620.9 168.06 628.32 176 644.7 176L669.28 176C685.66 176 693.09 168.06 693.09 153.47L693.09 139.9L670.56 139.9L670.56 150.14C670.56 156.29 669.02 157.82 662.88 157.82L651.1 157.82C644.96 157.82 643.42 156.29 643.42 150.4L643.42 120.7L693.86 120.7L693.86 73.86C693.86 59.01 686.43 51.07 669.79 51.07ZM736.61 176L736.61 4.74L713.57 4.74L713.57 176ZM803.42 24.19L803.42 4.74L785.76 4.74C769.38 4.74 761.95 12.67 761.95 27.26L761.95 51.07L749.41 51.07L749.41 69.76L761.95 69.76L761.95 176L784.99 176L784.99 69.76L803.42 69.76L803.42 51.07L784.99 51.07L784.99 31.62C784.99 25.47 786.53 24.19 792.67 24.19Z" />
</svg>